<svg version="1.1" id="Layer_1" xmlns="http://www.w3.org/2000/svg" xmlns:xlink="http://www.w3.org/1999/xlink" x="0px" y="0px" width="100%" viewBox="0 0 3436 454" enable-background="new 0 0 3436 454" xml:space="preserve">

<path fill="#020202" opacity="1.000000" stroke="none" d="
M667.764404,362.000122 
	C667.764404,371.786438 667.764404,381.072754 667.764404,390.625977 
	C651.666931,390.625977 636.069458,390.625977 620.045654,390.625977 
	C620.045654,289.026581 620.045654,187.363541 620.045654,85.316635 
	C621.330139,85.233391 622.756409,85.061043 624.182800,85.060303 
	C653.835632,85.044922 683.489990,84.863823 713.140930,85.102020 
	C742.033936,85.334122 765.447205,96.667915 781.889709,120.870743 
	C790.248413,133.174423 794.087891,147.017365 794.117432,161.888809 
	C794.148254,177.381531 794.271484,192.875992 794.097168,208.366806 
	C793.629211,249.955551 761.035217,283.499695 719.367920,285.010956 
	C704.227051,285.560089 689.054688,285.239044 673.896667,285.312500 
	C672.093384,285.321228 670.289978,285.313690 667.764404,285.313690 
	C667.764404,311.013855 667.764404,336.256989 667.764404,362.000122 
M701.498962,241.905838 
	C705.165405,241.904877 708.831787,241.912399 712.498230,241.901550 
	C733.275452,241.840012 745.798096,229.516861 745.983093,208.699493 
	C746.122253,193.035095 746.118469,177.367416 745.977112,161.703018 
	C745.790588,141.042709 733.518311,128.851868 712.883728,128.716034 
	C699.385193,128.627167 685.885559,128.688599 672.386414,128.712234 
	C670.953918,128.714737 669.521851,128.916000 668.168701,129.019012 
	C668.168701,166.819733 668.168701,204.199265 668.168701,241.469925 
	C668.883972,241.674622 669.193542,241.839874 669.503601,241.840805 
	C679.835510,241.872009 690.167419,241.887543 701.498962,241.905838 
z" data-index="1" style="opacity: 1;"></path>
<path fill="#030303" opacity="1.000000" stroke="none" d="
M2748.108154,158.017761 
	C2755.550293,158.444061 2762.654053,158.150986 2769.436279,159.488007 
	C2783.705078,162.300888 2793.840088,171.063110 2800.753662,183.696884 
	C2801.599365,185.242493 2802.418213,186.802963 2804.218262,188.224747 
	C2804.218262,179.570572 2804.218262,170.916397 2804.218262,162.056030 
	C2820.498779,162.056030 2836.107910,162.056030 2852.138672,162.056030 
	C2852.138672,238.226913 2852.138672,314.368347 2852.138672,390.706970 
	C2836.344238,390.706970 2820.725586,390.706970 2804.516113,390.706970 
	C2804.516113,381.947174 2804.516113,373.225342 2804.516113,363.147247 
	C2803.138916,364.780701 2802.534424,365.259766 2802.237061,365.884857 
	C2791.479248,388.505066 2772.622070,395.548615 2748.907959,394.688232 
	C2711.816162,393.342468 2693.320801,366.010986 2689.138428,336.046509 
	C2687.513916,324.407532 2687.666260,312.474365 2687.610596,300.672333 
	C2687.493408,275.855103 2687.329834,251.023254 2688.041748,226.221970 
	C2688.548096,208.573669 2693.768311,192.154083 2705.270508,178.244019 
	C2716.249512,164.966782 2730.656494,158.800095 2748.108154,158.017761 
M2771.356445,201.585587 
	C2768.197266,201.558167 2765.020264,201.299438 2761.882324,201.543640 
	C2748.715576,202.568237 2739.999023,209.951981 2737.108398,222.923645 
	C2736.105957,227.421768 2735.787354,232.150085 2735.765869,236.776062 
	C2735.644531,263.084656 2735.695557,289.394073 2735.723145,315.703186 
	C2735.726318,318.696899 2735.790039,321.706696 2736.095947,324.681213 
	C2737.494629,338.273682 2745.500732,348.186615 2757.349854,350.458893 
	C2761.383057,351.232452 2765.635986,351.067474 2769.783691,351.002899 
	C2790.714355,350.677185 2804.280029,336.982330 2804.346436,316.016693 
	C2804.430176,289.541321 2804.430420,263.065277 2804.349854,236.589859 
	C2804.288086,216.305054 2792.642334,203.712112 2771.356445,201.585587 
z" data-index="2" style="opacity: 1;"></path>
<path fill="#020202" opacity="1.000000" stroke="none" d="
M1414.601318,160.280518 
	C1446.749268,169.543350 1466.895996,189.664139 1473.487549,222.479294 
	C1474.137939,225.717117 1474.310791,229.094849 1474.324585,232.409241 
	C1474.401733,250.865204 1474.361572,269.321655 1474.361572,288.291931 
	C1434.954834,288.291931 1395.722778,288.291931 1355.254761,288.291931 
	C1355.874146,302.055695 1355.309448,315.454742 1357.382202,328.432617 
	C1359.547852,341.993408 1371.605591,350.585266 1385.447632,350.965637 
	C1390.598022,351.107117 1395.851318,351.353546 1400.901123,350.557922 
	C1414.660156,348.390137 1424.417480,337.710815 1425.985718,323.850647 
	C1426.150757,322.391937 1426.264771,320.927460 1426.426147,319.213928 
	C1442.437744,319.213928 1458.167847,319.213928 1474.259888,319.213928 
	C1474.231812,337.288727 1468.146606,352.935272 1456.652100,366.372375 
	C1438.004517,388.171295 1413.617310,395.837311 1385.646484,394.596222 
	C1366.573853,393.750031 1349.423706,388.092194 1334.791992,375.600311 
	C1317.980469,361.247253 1308.278809,343.128662 1307.950928,320.905487 
	C1307.508667,290.930542 1307.316528,260.930939 1308.025269,230.965744 
	C1308.751465,200.261002 1329.919434,172.913116 1359.003418,162.915024 
	C1377.168945,156.670349 1395.583740,156.712036 1414.601318,160.280518 
M1379.110352,202.303879 
	C1359.530518,207.632324 1353.124878,224.971298 1356.580811,246.652664 
	C1379.624023,246.652664 1402.682983,246.652664 1425.732178,246.652664 
	C1425.732178,239.805145 1426.551025,233.091553 1425.563965,226.654938 
	C1423.419312,212.669189 1412.823975,203.011139 1398.840210,201.859665 
	C1392.589355,201.344955 1386.240845,202.017502 1379.110352,202.303879 
z" data-index="3" style="opacity: 1;"></path>
<path fill="#010101" opacity="1.000000" stroke="none" d="
M2056.336426,343.714355 
	C2070.259521,353.904846 2085.118652,353.345642 2099.756348,347.490570 
	C2109.789795,343.477112 2114.346924,334.336945 2115.955078,323.852081 
	C2116.177002,322.404266 2116.239746,320.932037 2116.400391,319.215210 
	C2132.375488,319.215210 2148.107422,319.215210 2164.235107,319.215210 
	C2164.143311,337.467041 2157.983887,353.238953 2146.280518,366.754242 
	C2127.629150,388.293518 2103.354004,395.830353 2075.584717,394.597870 
	C2056.881104,393.767792 2039.996460,388.293976 2025.498657,376.220978 
	C2007.746948,361.438202 1998.011597,342.550507 1997.794800,319.372253 
	C1997.517456,289.723907 1997.117432,260.047394 1998.074951,230.425201 
	C1998.983643,202.317459 2013.197388,180.874542 2037.786499,168.262894 
	C2068.989990,152.258759 2100.951660,152.953125 2130.868896,172.262268 
	C2151.329102,185.467758 2162.946289,205.067520 2163.978760,229.674820 
	C2164.787598,248.945587 2164.141357,268.277405 2164.141357,288.295135 
	C2124.922607,288.295135 2085.589600,288.295135 2046.287842,288.295135 
	C2046.287842,301.121643 2045.804565,313.262054 2046.471436,325.338959 
	C2046.863525,332.441711 2050.645996,338.599274 2056.336426,343.714355 
M2045.754395,240.419128 
	C2045.754395,242.488785 2045.754395,244.558441 2045.754395,246.637787 
	C2069.664062,246.637787 2092.713867,246.637787 2115.835693,246.637787 
	C2115.835693,240.099350 2116.486572,233.751373 2115.705078,227.584885 
	C2113.888672,213.252930 2103.105713,203.126678 2088.783936,201.822006 
	C2083.844971,201.372055 2078.800049,201.341675 2073.860596,201.773682 
	C2058.981934,203.075089 2048.245117,213.298798 2046.204224,227.985382 
	C2045.680786,231.751999 2045.884399,235.619629 2045.754395,240.419128 
z" data-index="4" style="opacity: 1;"></path>
<path fill="#020202" opacity="1.000000" stroke="none" d="
M557.747986,152.000122 
	C557.747864,205.985641 557.841370,259.471436 557.684631,312.956482 
	C557.642273,327.398956 555.340576,341.514923 547.836914,354.224426 
	C533.624695,378.296600 512.513489,391.718964 484.669006,394.076385 
	C468.867462,395.414185 453.108215,395.377045 437.746429,390.216553 
	C406.703461,379.788330 386.140808,353.136749 384.902740,320.444458 
	C384.311188,304.824097 384.800934,289.162781 384.800934,273.224579 
	C400.760162,273.224579 416.514832,273.224579 433.080261,273.224579 
	C433.080261,274.652069 433.086060,276.226685 433.079346,277.801239 
	C433.019745,291.794464 432.978180,305.787842 432.891510,319.780914 
	C432.782806,337.331207 445.563232,350.629700 463.129059,350.990784 
	C469.785706,351.127625 476.534302,351.493256 483.094910,350.636200 
	C497.676208,348.731415 507.992126,336.892181 508.948212,321.906525 
	C509.064789,320.079132 509.080505,318.242889 509.080719,316.410767 
	C509.088257,255.427292 509.088165,194.443817 509.089203,133.460342 
	C509.089203,132.144562 509.089203,130.828796 509.089203,128.868454 
	C485.458160,128.868454 462.092010,128.868454 438.442627,128.868454 
	C438.442627,113.997177 438.442627,99.776474 438.442627,85.299255 
	C478.095215,85.299255 517.527649,85.299255 557.747620,85.299255 
	C557.747620,107.344948 557.747620,129.422531 557.747986,152.000122 
z" data-index="5"></path>
<path fill="#020202" opacity="1.000000" stroke="none" d="
M1079.570557,137.999588 
	C1079.570557,120.194466 1079.570557,102.889366 1079.570557,85.316109 
	C1136.560181,85.316109 1193.120483,85.316109 1249.948853,85.316109 
	C1249.948853,99.732323 1249.948853,113.962311 1249.948853,128.646149 
	C1209.277344,128.646149 1168.849854,128.646149 1128.074951,128.646149 
	C1128.074951,161.803589 1128.074951,194.508087 1128.074951,227.677368 
	C1165.069702,227.677368 1201.820801,227.677368 1238.856201,227.677368 
	C1238.856201,242.229126 1238.856201,256.321533 1238.856201,271.044373 
	C1202.062500,271.044373 1165.191895,271.044373 1127.770630,271.044373 
	C1127.770630,311.234467 1127.770630,350.801483 1127.770630,390.632233 
	C1111.612793,390.632233 1096.008057,390.632233 1079.570557,390.632233 
	C1079.570557,306.620178 1079.570557,222.559891 1079.570557,137.999588 
z" data-index="6" style="opacity: 1;"></path>
<path fill="#020202" opacity="1.000000" stroke="none" d="
M2253.000000,205.208160 
	C2245.016846,205.208130 2237.533691,205.208130 2229.750977,205.208130 
	C2229.750977,190.771118 2229.750977,176.679108 2229.750977,162.206833 
	C2264.657471,162.206833 2299.536133,162.206833 2334.870117,162.206833 
	C2334.870117,223.525757 2334.870117,284.932739 2334.870117,346.946167 
	C2354.188232,346.946167 2373.070312,346.946167 2392.278564,346.946167 
	C2392.278564,361.791473 2392.278564,376.031860 2392.278564,390.588196 
	C2338.114990,390.588196 2284.064453,390.588196 2229.729492,390.588196 
	C2229.729492,376.217407 2229.729492,361.970001 2229.729492,347.283813 
	C2248.716553,347.283813 2267.477051,347.283813 2286.591064,347.283813 
	C2286.591064,299.935425 2286.591064,253.022919 2286.591064,205.208176 
	C2275.644775,205.208176 2264.572510,205.208176 2253.000000,205.208160 
z" data-index="7" style="opacity: 1;"></path>
<path fill="#020202" opacity="1.000000" stroke="none" d="
M2501.689453,325.999359 
	C2501.689453,285.571228 2501.689453,245.642929 2501.689453,205.313690 
	C2495.067627,205.313690 2489.124023,205.313690 2482.803711,205.313690 
	C2482.803711,190.707504 2482.803711,176.502777 2482.803711,162.062668 
	C2505.022705,162.062668 2527.115723,162.062668 2549.645508,162.062668 
	C2549.645508,172.134506 2549.645508,182.068756 2549.645508,192.002991 
	C2550.018311,192.144684 2550.391113,192.286392 2550.763916,192.428101 
	C2551.471436,191.129379 2552.199463,189.841492 2552.883301,188.530457 
	C2561.844971,171.345840 2575.963867,162.320923 2595.380859,161.923370 
	C2604.697998,161.732605 2614.022217,161.890503 2623.706299,161.890503 
	C2623.706299,176.236771 2623.706299,190.445938 2623.706299,205.206253 
	C2612.392822,205.206253 2601.114990,204.989685 2589.851074,205.296158 
	C2584.078125,205.453232 2578.114258,205.790451 2572.614746,207.366028 
	C2559.640381,211.083221 2550.203613,222.290543 2550.088867,234.916946 
	C2549.750977,272.057892 2549.968262,309.203918 2549.968262,347.011932 
	C2564.557861,347.011932 2579.093750,347.011932 2593.879883,347.011932 
	C2593.879883,361.908875 2593.879883,376.142242 2593.879883,390.638733 
	C2550.941406,390.638733 2508.207764,390.638733 2465.164795,390.638733 
	C2465.164795,376.268982 2465.164795,362.034058 2465.164795,347.302612 
	C2477.141846,347.302612 2489.069824,347.302612 2501.689697,347.302612 
	C2501.689697,340.052582 2501.689697,333.275879 2501.689453,325.999359 
z" data-index="8" style="opacity: 1;"></path>
<path fill="#020202" opacity="1.000000" stroke="none" d="
M1869.037109,179.059387 
	C1878.535278,167.507309 1890.673584,162.212860 1905.073364,161.936462 
	C1914.538574,161.754791 1924.010132,161.902145 1933.787720,161.902145 
	C1933.787720,176.354050 1933.787720,190.559662 1933.787720,205.206390 
	C1921.306763,205.206390 1909.022583,205.196762 1896.738403,205.209274 
	C1885.832397,205.220398 1876.016968,208.075211 1868.285645,216.259705 
	C1863.553711,221.268890 1860.211792,227.249390 1860.167725,234.062332 
	C1859.925537,271.517029 1860.052002,308.974121 1860.052002,346.945740 
	C1874.559814,346.945740 1888.958374,346.945740 1903.761719,346.945740 
	C1903.761719,361.673615 1903.761719,375.894623 1903.761719,390.509644 
	C1861.105225,390.509644 1818.263184,390.509644 1775.153809,390.509644 
	C1775.153809,376.202118 1775.153809,361.969696 1775.153809,347.246765 
	C1787.245239,347.246765 1799.167969,347.246765 1811.411499,347.246765 
	C1811.411499,299.863373 1811.411499,252.968414 1811.411499,205.489502 
	C1805.343628,205.489502 1799.277588,205.489502 1792.849365,205.489502 
	C1792.849365,190.701614 1792.849365,176.493652 1792.849365,162.056488 
	C1815.062866,162.056488 1837.154785,162.056488 1859.673096,162.056488 
	C1859.673096,172.113800 1859.673096,182.046158 1859.673096,193.536606 
	C1863.268799,187.953735 1866.042725,183.646667 1869.037109,179.059387 
z" data-index="9" style="opacity: 1;"></path>
<path fill="#020202" opacity="1.000000" stroke="none" d="
M1650.000000,390.897278 
	C1614.870361,390.897217 1580.240601,390.897217 1545.256470,390.897217 
	C1545.256470,376.361115 1545.256470,362.123047 1545.256470,347.375854 
	C1557.066650,347.375854 1568.986694,347.375854 1581.328125,347.375854 
	C1581.328125,299.867615 1581.328125,252.864182 1581.328125,205.315460 
	C1575.146484,205.315460 1569.068237,205.315460 1562.756714,205.315460 
	C1562.756714,190.666672 1562.756714,176.560822 1562.756714,162.142395 
	C1584.976807,162.142395 1607.056641,162.142395 1629.772949,162.142395 
	C1629.772949,172.068115 1629.772949,182.079010 1629.772949,192.089890 
	C1630.123413,192.175064 1630.473877,192.260239 1630.824463,192.345428 
	C1631.900879,190.399567 1632.961792,188.444885 1634.056641,186.509369 
	C1643.009521,170.680786 1656.636108,162.465546 1674.755493,161.956223 
	C1684.367188,161.686050 1693.992676,161.908371 1703.857666,161.908371 
	C1703.857666,176.362213 1703.857666,190.447510 1703.857666,205.203842 
	C1698.400146,205.203842 1692.974731,205.120377 1687.552979,205.222107 
	C1677.738037,205.406281 1667.840088,204.974091 1658.130615,206.112015 
	C1641.705688,208.036942 1630.081055,221.043533 1629.975586,237.257385 
	C1629.742432,273.076202 1629.887451,308.897461 1629.891357,344.717743 
	C1629.891479,345.351105 1630.055664,345.984436 1630.209229,347.093140 
	C1644.736694,347.093140 1659.142700,347.093140 1673.860840,347.093140 
	C1673.860840,361.826477 1673.860840,376.058228 1673.860840,390.897308 
	C1666.051514,390.897308 1658.275757,390.897308 1650.000000,390.897278 
z" data-index="10" style="opacity: 1;"></path>
<path fill="#040404" opacity="1.000000" stroke="none" d="
M2301.000000,85.039566 
	C2312.468994,85.039459 2323.437988,85.039459 2335.065674,85.039459 
	C2335.065674,92.455742 2335.065674,99.551628 2335.065674,106.647522 
	C2335.065674,113.792183 2335.065674,120.936852 2335.065674,128.394516 
	C2314.337402,128.394516 2293.949707,128.394516 2273.315918,128.394516 
	C2273.315918,114.058502 2273.315918,99.951897 2273.315918,85.039673 
	C2282.340088,85.039673 2291.419922,85.039673 2301.000000,85.039566 
z" data-index="11"></path>

<path fill="#C4C4C4" opacity="1.000000" stroke="none" d="
M2771.829834,201.629211 
	C2792.642334,203.712112 2804.288086,216.305054 2804.349854,236.589859 
	C2804.430420,263.065277 2804.430176,289.541321 2804.346436,316.016693 
	C2804.280029,336.982330 2790.714355,350.677185 2769.783691,351.002899 
	C2765.635986,351.067474 2761.383057,351.232452 2757.349854,350.458893 
	C2745.500732,348.186615 2737.494629,338.273682 2736.095947,324.681213 
	C2735.790039,321.706696 2735.726318,318.696899 2735.723145,315.703186 
	C2735.695557,289.394073 2735.644531,263.084656 2735.765869,236.776062 
	C2735.787354,232.150085 2736.105957,227.421768 2737.108398,222.923645 
	C2739.999023,209.951981 2748.715576,202.568237 2761.882324,201.543640 
	C2765.020264,201.299438 2768.197266,201.558167 2771.829834,201.629211 
z" data-index="13" style="opacity: 1; visibility: hidden; fill: rgb(121, 40, 202); stroke: rgb(121, 40, 202);"></path>

<path fill="#C3C3C3" opacity="1.000000" stroke="none" d="
M2045.754150,239.929977 
	C2045.884399,235.619629 2045.680786,231.751999 2046.204224,227.985382 
	C2048.245117,213.298798 2058.981934,203.075089 2073.860596,201.773682 
	C2078.800049,201.341675 2083.844971,201.372055 2088.783936,201.822006 
	C2103.105713,203.126678 2113.888672,213.252930 2115.705078,227.584885 
	C2116.486572,233.751373 2115.835693,240.099350 2115.835693,246.637787 
	C2092.713867,246.637787 2069.664062,246.637787 2045.754395,246.637787 
	C2045.754395,244.558441 2045.754395,242.488785 2045.754150,239.929977 
z" data-index="15" style="opacity: 1; visibility: hidden; fill: rgb(121, 40, 202); stroke: rgb(121, 40, 202);"></path>
</svg>